<svg xmlns="http://www.w3.org/2000/svg" xml:space="preserve" style="fill-rule:evenodd;clip-rule:evenodd;stroke-linejoin:round;stroke-miterlimit:2" viewBox="0 0 260 260"><path d="M0 0h260v260H0z" style="fill:#b9d76b"/><path d="M78.305 104.384H59.772v-4.161c0-4.222-1-7.87-2.998-10.945-1.999-3.076-5.361-4.614-10.085-4.614-2.544 0-4.603.483-6.178 1.448-1.575.964-2.847 2.171-3.816 3.618-.969 1.568-1.635 3.347-1.998 5.337a34.635 34.635 0 0 0-.546 6.241c0 2.533.091 4.644.273 6.332.182 1.689.636 3.196 1.363 4.523.727 1.327 1.787 2.472 3.18 3.437 1.393.965 3.301 1.93 5.723 2.895l14.173 5.608c4.119 1.568 7.45 3.407 9.994 5.518 2.544 2.111 4.542 4.553 5.996 7.327 1.332 2.895 2.241 6.181 2.726 9.86.484 3.678.726 7.869.726 12.573 0 5.427-.545 10.463-1.635 15.106-1.09 4.644-2.847 8.594-5.269 11.85-2.544 3.377-5.875 6.03-9.994 7.96-4.119 1.93-9.146 2.895-15.081 2.895-4.482 0-8.662-.784-12.538-2.352-3.876-1.568-7.208-3.739-9.994-6.513-2.786-2.774-4.997-6-6.632-9.679-1.635-3.678-2.453-7.689-2.453-12.03v-6.875h18.534v5.789c0 3.377.999 6.422 2.998 9.136 1.999 2.714 5.36 4.071 10.085 4.071 3.149 0 5.602-.453 7.359-1.357 1.756-.905 3.119-2.201 4.088-3.89.969-1.688 1.544-3.708 1.726-6.06.182-2.352.273-4.975.273-7.87 0-3.377-.122-6.151-.364-8.322-.242-2.171-.727-3.92-1.453-5.246a10.194 10.194 0 0 0-3.362-3.257c-1.393-.844-3.24-1.749-5.542-2.714l-13.264-5.427c-7.995-3.256-13.355-7.568-16.081-12.935-2.726-5.367-4.088-12.091-4.088-20.172 0-4.824.666-9.407 1.998-13.749 1.333-4.342 3.332-8.081 5.997-11.217 2.543-3.136 5.784-5.638 9.721-7.508 3.937-1.869 8.631-2.804 14.082-2.804 4.603 0 8.812.844 12.628 2.533 3.816 1.688 7.117 3.92 9.903 6.694 5.572 5.789 8.358 12.422 8.358 19.9v9.046ZM92.115 196.106V67.297h17.807l23.803 68.204h.363l23.622-68.204h17.988v128.809h-18.533v-78.335h-.364l-18.352 55.359h-9.267l-18.17-55.359h-.363v78.335H92.115ZM205.316 196.106V84.664h-21.441V67.297h61.416v17.367H223.85v111.442h-18.534Z" style="fill-rule:nonzero"/></svg>